{"title":"Relatos Salvajes - Wild Tales 2014 bluray 1080p DTS x264-FGT[rar","uid":12081234,"size":5041685431,"categoryP":"video","categoryS":"hd___movies","magnet":"?xt=urn:btih:dd84fecc7fb3eebf31bd6654e8997c19050d5784&amp;dn=Relatos+Salvajes+-+Wild+Tales+2014+bluray+1080p+DTS+x264-FGT%5Brar&amp;tr=udp%3A%2F%2Ftracker.openbittorrent.com%3A80&amp;tr=udp%3A%2F%2Fopen.demonii.com%3A1337&amp;tr=udp%3A%2F%2Ftracker.coppersurfer.tk%3A6969&amp;tr=udp%3A%2F%2Fexodus.desync.com%3A6969","seeders":3,"leechers":0,"uploader":null,"files":7,"time":1435773797,"description":"Relatos Salvajes - Wild Tales 2014 bluray 1080p DTS x264-FGT[rarbg]\n\nSource: Bluray FGT [RARBG]\nFormat: MKV\nFile size : 4.69 GiB\nDuration : 2h 1mn\nOverall bit rate : 5 510 Kbps\nVideo: 23.976fps, x264, &lt;a class=&quot;__cf_email__&quot; href=&quot;/cdn-cgi/l/email-protection&quot; data-cfemail=&quot;9ed6f7f9f6ded2aab0af&quot;&gt;[email&amp;#160;protected]&lt;/a&gt;&lt;script data-cfhash='f9e31' type=&quot;text/javascript&quot;&gt;\n/* &lt;![CDATA[ */!function(){try{var t=&quot;currentScript&quot;in document?document.currentScript:function(){for(var t=document.getElementsByTagName(&quot;script&quot;),e=t.length;e--;)if(t[e].getAttribute(&quot;data-cfhash&quot;))return t[e]}();if(t&amp;&amp;t.previousSibling){var e,r,n,i,c=t.previousSibling,a=c.getAttribute(&quot;data-cfemail&quot;);if(a){for(e=&quot;&quot;,r=parseInt(a.substr(0,2),16),n=2;a.length-n;n+=2)i=parseInt(a.substr(n,2),16)^r,e+=String.fromCharCode(i);e=document.createTextNode(e),c.parentNode.replaceChild(e,c)}t.parentNode.removeChild(t);}}catch(u){}}()/* ]]&gt; */&lt;/script&gt; ~4000 Kbps\nResolution: 1920 x 808 pixels\nAudio: Spanish , DTS 5.1 , converted from TrueHD\nSubtitles: English, SRT , inside MKV\nChapter menu: Yes\n\n\n\nGeneral\nUnique ID : 180817828676843763859151589202048432271 (0x88083F40296C09C68C38DE4B7A4DB88F)\nComplete name : E:PELICULAS 2015Relatos.Salvajes.-.Wild.Tales.2014.bluray.1080p.DTS.x264-FGT[rarbg]Relatos.Salvajes.-.Wild.Tales.2014.bluray.1080p.DTS.x264-FGT[rarbg].mkv\nFormat : Matroska\nFormat version : Version 4 / Version 2\nFile size : 4.69 GiB\nDuration : 2h 1mn\nOverall bit rate : 5 510 Kbps\nEncoded date : UTC 2015-07-01 15:11:23\nWriting application : mkvmerge v7.9.0 ('Birds') 64bit\nWriting library : libebml v1.3.1 + libmatroska v1.4.2\n_STATISTICS_WRITING_APP : mkvmerge v7.9.0 ('Birds') 64bit\n_STATISTICS_WRITING_DATE_UT : 2015-07-01 15:11:23\n_STATISTICS_TAGS : BPS DURATION NUMBER_OF_FRAMES NUMBER_OF_BYTES\nDURATION : 02:01:59.190000000\nNUMBER_OF_FRAMES : 686174\nNUMBER_OF_BYTES : 1381268262\n\n\nVideo\nID : 1\nFormat : AVC\nFormat/Info : Advanced Video Codec\nFormat profile : &lt;a class=&quot;__cf_email__&quot; href=&quot;/cdn-cgi/l/email-protection&quot; data-cfemail=&quot;85cdece2edc5c9b1abb4&quot;&gt;[email&amp;#160;protected]&lt;/a&gt;&lt;script data-cfhash='f9e31' type=&quot;text/javascript&quot;&gt;\n/* &lt;![CDATA[ */!function(){try{var t=&quot;currentScript&quot;in document?document.currentScript:function(){for(var t=document.getElementsByTagName(&quot;script&quot;),e=t.length;e--;)if(t[e].getAttribute(&quot;data-cfhash&quot;))return t[e]}();if(t&amp;&amp;t.previousSibling){var e,r,n,i,c=t.previousSibling,a=c.getAttribute(&quot;data-cfemail&quot;);if(a){for(e=&quot;&quot;,r=parseInt(a.substr(0,2),16),n=2;a.length-n;n+=2)i=parseInt(a.substr(n,2),16)^r,e+=String.fromCharCode(i);e=document.createTextNode(e),c.parentNode.replaceChild(e,c)}t.parentNode.removeChild(t);}}catch(u){}}()/* ]]&gt; */&lt;/script&gt;\nFormat settings, CABAC : Yes\nFormat settings, ReFrames : 5 frames\nCodec ID : avc1\nCodec ID/Info : Advanced Video Coding\nDuration : 2h 1mn\nBit rate : 4 000 Kbps\nMaximum bit rate : 10.3 Mbps\nWidth : 1 920 pixels\nHeight : 808 pixels\nDisplay aspect ratio : 2.40:1\nFrame rate mode : Constant\nFrame rate : 23.976 fps\nColor space : YUV\nChroma subsampling : 4:2:0\nBit depth : 8 bits\nScan type : Progressive\nBits/(Pixel*Frame) : 0.108\nStream size : 3.41 GiB (100%)\nWriting library : x264 core 146 r2538kMod 121396c\nEncoding settings : cabac=1 / ref=5 / deblock=1:-1:-1 / analyse=0x3:0x133 / me=umh / subme=10 / psy=1 / fade_compensate=0.00 / psy_rd=1.00:0.00 / mixed_ref=1 / me_range=24 / chroma_me=1 / trellis=2 / 8x8dct=1 / cqm=0 / deadzone=21,11 / fast_pskip=1 / chroma_qp_offset=-2 / threads=4 / lookahead_threads=1 / sliced_threads=0 / nr=0 / decimate=1 / interlaced=0 / bluray_compat=0 / constrained_intra=0 / fgo=0 / bframes=5 / b_pyramid=2 / b_adapt=2 / b_bias=0 / direct=3 / weightb=1 / open_gop=0 / weightp=2 / keyint=250 / keyint_min=23 / scenecut=40 / intra_refresh=0 / rc_lookahead=50 / rc=2pass / mbtree=1 / bitrate=4000 / ratetol=1.0 / qcomp=0.65 / qpmin=0 / qpmax=69 / qpstep=4 / cplxblur=20.0 / qblur=0.5 / vbv_maxrate=9550 / vbv_bufsize=2000 / nal_hrd=none / filler=0 / ip_ratio=1.40 / aq=2:1.00\n\n\nAudio\nID : 2\nFormat : DTS\nFormat/Info : Digital Theater Systems\nMode : 16\nFormat settings, Endianness : Big\nCodec ID : A_DTS\nDuration : 2h 1mn\nBit rate mode : Constant\nBit rate : 1 510 Kbps\nChannel(s) : 6 channels\nChannel positions : Front: L C R, Side: L R, LFE\nSampling rate : 48.0 KHz\nBit depth : 24 bits\nCompression mode : Lossy\nStream size : 1.29 GiB (27%)\nLanguage : Spanish\nDefault : Yes\nForced : No\n\nText\nID : 3\nFormat : UTF-8\nCodec ID : S_TEXT/UTF8\nCodec ID/Info : UTF-8 Plain Text\nLanguage : English\nDefault : Yes\nForced : Yes\n\nMenu\n00:00:00.000 : en:00:00:00.000\n00:08:48.820 : en:00:08:48.820\n00:20:34.275 : en:00:20:34.275\n00:38:56.334 : en:00:38:56.334\n01:01:52.709 : en:01:01:52.709\n01:25:29.124 : en:01:25:29.124","torrent":{"xt":"urn:btih:dd84fecc7fb3eebf31bd6654e8997c19050d5784","amp;dn":"Relatos+Salvajes+-+Wild+Tales+2014+bluray+1080p+DTS+x264-FGT%5Brar","amp;tr":["udp%3A%2F%2Ftracker.openbittorrent.com%3A80","udp%3A%2F%2Fopen.demonii.com%3A1337","udp%3A%2F%2Ftracker.coppersurfer.tk%3A6969","udp%3A%2F%2Fexodus.desync.com%3A6969"],"infoHash":"dd84fecc7fb3eebf31bd6654e8997c19050d5784","infoHashBuffer":{"type":"Buffer","data":[221,132,254,204,127,179,238,191,49,189,102,84,232,153,124,25,5,13,87,132]},"announce":[],"urlList":[]}}